<svg width="30" height="30" viewBox="0 0 30 30" fill="none" xmlns="http://www.w3.org/2000/svg">
<path d="M23.292 7.368C22.5098 7.36806 21.7359 7.52836 21.018 7.839C20.8205 5.96476 19.9323 4.23118 18.5263 2.97612C17.1204 1.72105 15.2976 1.03441 13.413 1.05C9.213 1.05 5.778 4.401 5.778 8.52C5.77795 8.98316 5.82215 9.44526 5.91 9.9C5.31359 9.77734 4.698 9.78214 4.10358 9.91409C3.50916 10.046 2.94935 10.3021 2.46085 10.6656C1.97236 11.0291 1.56622 11.4918 1.26908 12.0232C0.971932 12.5547 0.790489 13.1429 0.736649 13.7494C0.682808 14.3559 0.757787 14.967 0.956667 15.5425C1.15555 16.118 1.47384 16.6449 1.89066 17.0888C2.30748 17.5326 2.81343 17.8833 3.37531 18.1179C3.93719 18.3525 4.54231 18.4657 5.151 18.45H5.301C5.42035 18.45 5.53481 18.4026 5.6192 18.3182C5.70359 18.2338 5.751 18.1194 5.751 18C5.751 17.8807 5.70359 17.7662 5.6192 17.6818C5.53481 17.5974 5.42035 17.55 5.301 17.55H5.151C4.69435 17.5635 4.23963 17.4853 3.81377 17.3199C3.38791 17.1545 2.99958 16.9053 2.67179 16.5871C2.344 16.2689 2.0834 15.8881 1.90545 15.4673C1.7275 15.0466 1.63581 14.5944 1.63581 14.1375C1.63581 13.6807 1.7275 13.2284 1.90545 12.8077C2.0834 12.3869 2.344 12.0061 2.67179 11.6879C2.99958 11.3697 3.38791 11.1205 3.81377 10.9551C4.23963 10.7897 4.69435 10.7115 5.151 10.725C5.56866 10.7259 5.98293 10.8 6.375 10.944C6.45371 10.9729 6.53892 10.9792 6.62102 10.9622C6.70312 10.9452 6.77885 10.9057 6.83967 10.848C6.90049 10.7903 6.94398 10.7167 6.96524 10.6356C6.9865 10.5545 6.98469 10.4691 6.96 10.389C6.77414 9.78234 6.67911 9.1515 6.678 8.517C6.678 4.893 9.699 1.947 13.413 1.947C17.127 1.947 20.148 4.896 20.148 8.505C20.148 8.505 20.148 8.547 20.148 8.559C20.1479 8.63865 20.1689 8.71692 20.2089 8.78579C20.2489 8.85467 20.3064 8.9117 20.3757 8.95106C20.4449 8.99041 20.5234 9.01068 20.603 9.00979C20.6827 9.0089 20.7606 8.98689 20.829 8.946C21.5752 8.50267 22.427 8.26847 23.295 8.268C23.9108 8.24585 24.5248 8.34661 25.1012 8.5644C25.6776 8.7822 26.2048 9.11266 26.652 9.53648C27.0993 9.96031 27.4576 10.469 27.706 11.0329C27.9545 11.5967 28.0881 12.2044 28.099 12.8205C28.11 13.4366 27.9981 14.0486 27.7699 14.621C27.5416 15.1933 27.2016 15.7144 26.7698 16.1539C26.3379 16.5934 25.8228 16.9424 25.2545 17.1805C24.6862 17.4187 24.0762 17.5412 23.46 17.541H23.388H21.627C21.5077 17.541 21.3932 17.5884 21.3088 17.6728C21.2244 17.7572 21.177 17.8717 21.177 17.991C21.177 18.1103 21.2244 18.2248 21.3088 18.3092C21.3932 18.3936 21.5077 18.441 21.627 18.441H23.472C23.5069 18.4452 23.5421 18.4452 23.577 18.441C25.0446 18.4032 26.437 17.784 27.448 16.7195C28.459 15.6551 29.0058 14.2326 28.968 12.765C28.9302 11.2974 28.311 9.90497 27.2465 8.89396C26.1821 7.88296 24.7596 7.33621 23.292 7.374V7.368Z" fill="black"/>
<path d="M22.182 23.382L19.35 26.214V12.9C19.35 12.7806 19.3026 12.6662 19.2182 12.5818C19.1338 12.4974 19.0193 12.45 18.9 12.45C18.7806 12.45 18.6662 12.4974 18.5818 12.5818C18.4974 12.6662 18.45 12.7806 18.45 12.9V26.214L15.618 23.382C15.5768 23.3378 15.5271 23.3023 15.4719 23.2777C15.4167 23.2531 15.3571 23.2399 15.2967 23.2388C15.2363 23.2378 15.1762 23.2489 15.1202 23.2715C15.0642 23.2942 15.0133 23.3278 14.9705 23.3706C14.9278 23.4133 14.8941 23.4642 14.8715 23.5202C14.8489 23.5763 14.8377 23.6363 14.8388 23.6967C14.8399 23.7571 14.8531 23.8167 14.8777 23.8719C14.9023 23.9271 14.9378 23.9768 14.982 24.018L18.582 27.618C18.6663 27.7023 18.7807 27.7496 18.9 27.7496C19.0192 27.7496 19.1336 27.7023 19.218 27.618L22.818 24.018C22.8975 23.9327 22.9407 23.8199 22.9387 23.7033C22.9366 23.5867 22.8894 23.4755 22.8069 23.393C22.7245 23.3106 22.6133 23.2633 22.4967 23.2613C22.3801 23.2592 22.2673 23.3025 22.182 23.382Z" fill="black"/>
<path d="M15.018 16.182L11.418 12.582C11.3336 12.4977 11.2192 12.4504 11.1 12.4504C10.9807 12.4504 10.8664 12.4977 10.782 12.582L7.18199 16.182C7.10251 16.2673 7.05923 16.3801 7.06129 16.4967C7.06335 16.6133 7.11057 16.7245 7.19302 16.807C7.27547 16.8894 7.3867 16.9366 7.50328 16.9387C7.61986 16.9408 7.73269 16.8975 7.81799 16.818L10.65 13.986V27.3C10.65 27.4193 10.6974 27.5338 10.7818 27.6182C10.8662 27.7026 10.9806 27.75 11.1 27.75C11.2193 27.75 11.3338 27.7026 11.4182 27.6182C11.5026 27.5338 11.55 27.4193 11.55 27.3V13.986L14.382 16.818C14.4673 16.8975 14.5801 16.9408 14.6967 16.9387C14.8133 16.9366 14.9245 16.8894 15.007 16.807C15.0894 16.7245 15.1366 16.6133 15.1387 16.4967C15.1408 16.3801 15.0975 16.2673 15.018 16.182Z" fill="black"/>
<path d="M17.277 7.356C17.3252 7.45595 17.4087 7.53455 17.5113 7.57671C17.614 7.61887 17.7286 7.62161 17.8331 7.5844C17.9377 7.5472 18.0248 7.47267 18.0778 7.37513C18.1307 7.2776 18.1457 7.16395 18.12 7.056C17.7784 6.0999 17.1529 5.27096 16.3273 4.68013C15.5016 4.0893 14.5152 3.76478 13.5 3.75C13.3806 3.75 13.2662 3.79741 13.1818 3.8818C13.0974 3.96619 13.05 4.08065 13.05 4.2C13.05 4.31935 13.0974 4.43381 13.1818 4.5182C13.2662 4.60259 13.3806 4.65 13.5 4.65C14.3301 4.6632 15.1364 4.92932 15.8113 5.41284C16.4862 5.89635 16.9975 6.57424 17.277 7.356Z" fill="black"/>
</svg>
