<svg width="25" height="20" viewBox="0 0 25 20" fill="none" xmlns="http://www.w3.org/2000/svg">
<path d="M22.5735 4.38477H20.5078V1.86523C20.5078 1.17486 19.8082 0.615234 18.9453 0.615234H6.05469C5.19172 0.615234 4.49219 1.17486 4.49219 1.86523V4.38477H2.42652C1.08871 4.38477 0 5.25573 0 6.32598V14.5355C0 15.6058 1.08871 16.4767 2.42652 16.4767H3.35617C3.57207 16.4767 3.7468 16.337 3.7468 16.1642C3.7468 15.9915 3.57207 15.8517 3.35617 15.8517H2.42652C1.51937 15.8517 0.78125 15.2612 0.78125 14.5355V6.32598C0.78125 5.60027 1.51937 5.00977 2.42652 5.00977H22.5735C23.4806 5.00977 24.2188 5.60027 24.2188 6.32598V14.5355C24.2188 15.2612 23.4806 15.8517 22.5735 15.8517H21.875C21.6591 15.8517 21.4844 15.9915 21.4844 16.1642C21.4844 16.337 21.6591 16.4767 21.875 16.4767H22.5735C23.9113 16.4767 25 15.6058 25 14.5355V6.32598C25 5.25573 23.9113 4.38477 22.5735 4.38477ZM5.27344 1.86523C5.27344 1.52061 5.62391 1.24023 6.05469 1.24023H18.9453C19.3761 1.24023 19.7266 1.52061 19.7266 1.86523V4.36523H5.27344V1.86523Z" fill="black"/>
<path d="M17.1875 14.0726H7.81251C7.59696 14.0726 7.42227 14.2123 7.42227 14.3848C7.42227 14.5572 7.59696 14.697 7.81251 14.697H17.1875C17.403 14.697 17.5777 14.5572 17.5777 14.3848C17.5777 14.2123 17.403 14.0726 17.1875 14.0726Z" fill="black"/>
<path d="M17.1875 16.2601H7.81251C7.59696 16.2601 7.42227 16.3998 7.42227 16.5723C7.42227 16.7447 7.59696 16.8845 7.81251 16.8845H17.1875C17.403 16.8845 17.5777 16.7447 17.5777 16.5723C17.5777 16.3998 17.403 16.2601 17.1875 16.2601Z" fill="black"/>
<path d="M3.10901 7.45017C3.54048 7.45017 3.89026 7.17035 3.89026 6.82517C3.89026 6.47999 3.54048 6.20017 3.10901 6.20017C2.67754 6.20017 2.32776 6.47999 2.32776 6.82517C2.32776 7.17035 2.67754 7.45017 3.10901 7.45017Z" fill="black"/>
<path d="M5.58035 7.45017C6.01183 7.45017 6.3616 7.17035 6.3616 6.82517C6.3616 6.47999 6.01183 6.20017 5.58035 6.20017C5.14888 6.20017 4.7991 6.47999 4.7991 6.82517C4.7991 7.17035 5.14888 7.45017 5.58035 7.45017Z" fill="black"/>
<path d="M8.05164 7.45017C8.48311 7.45017 8.83289 7.17035 8.83289 6.82517C8.83289 6.47999 8.48311 6.20017 8.05164 6.20017C7.62016 6.20017 7.27039 6.47999 7.27039 6.82517C7.27039 7.17035 7.62016 7.45017 8.05164 7.45017Z" fill="black"/>
<path d="M4.29688 19.3848H20.7031V11.2598H4.29688V19.3848ZM5.23582 12.0109H19.7642V18.6336H5.23582V12.0109Z" fill="black"/>
</svg>
